<svg id="Calque_1" xmlns="http://www.w3.org/2000/svg" viewBox="0 0 56.28 56.28"><defs><style>.cls-1{fill:#fff}</style></defs><path d="M28.14 54.78C13.45 54.78 1.5 42.83 1.5 28.14S13.45 1.5 28.14 1.5s26.64 11.95 26.64 26.64-11.95 26.64-26.64 26.64Z" style="fill:#2f363d"/><path class="cls-1" d="M28.14 3C42 3 53.28 14.28 53.28 28.14S42 53.28 28.14 53.28 3 42 3 28.14 14.28 3 28.14 3m0-3C12.6 0 0 12.6 0 28.14s12.6 28.14 28.14 28.14 28.14-12.6 28.14-28.14S43.68 0 28.14 0Z"/><path class="cls-1" d="m38.04 39.89 4.75 4.75 1.96-1.96-5-5c-.5.78-1.07 1.52-1.71 2.22ZM19.41 19.7a4.81 4.81 0 0 1 1.81-.65l-6.78-6.78-1.96 1.96 6.09 6.09c.37-.31.67-.51.84-.61ZM38.28 20.8l6.47-6.47-1.96-1.96-6.03 6.03c.17.27.34.54.5.78.34.53.68 1.07 1.03 1.62ZM12.48 42.78l1.96 1.96 4.07-4.07c-.68-.63-1.3-1.32-1.85-2.08l-4.19 4.19ZM30.97 13.13s-5.87 4.51-5.87 14.62c-3.42 0-4.1-4.92-4.1-4.92s-3.14 1.91-3.14 8.33S23.46 41 28.38 41s10.11-4.23 10.11-10.52-7.51-12.43-7.51-17.35Zm-2.73 26.64c-1.78 0-3.82-1.24-3.82-3.57s1.14-3.02 1.14-3.02.25 1.78 1.49 1.78c0-3.67 2.13-5.3 2.13-5.3 0 1.78 2.73 4.01 2.73 6.29s-1.88 3.82-3.67 3.82Z"/></svg>
