<svg id="Calque_1" xmlns="http://www.w3.org/2000/svg" viewBox="0 0 56.28 56.28"><defs><style>.cls-1{fill:#fff}</style></defs><path class="cls-1" d="M7.97 28.14c0 .82-.66 1.48-1.48 1.48s-1.48-.66-1.48-1.48.66-1.48 1.48-1.48 1.48.66 1.48 1.48Zm40.76-1.48c-.82 0-1.48.66-1.48 1.48s.66 1.48 1.48 1.48 1.48-.66 1.48-1.48-.66-1.48-1.48-1.48ZM8.64 23.06a1.48 1.48 0 1 1-2.86-.76 1.48 1.48 0 0 1 2.86.76Zm39.76 9.1a1.48 1.48 0 1 0-.76 2.86 1.48 1.48 0 0 0 .76-2.86ZM8.59 33.02c.2.79-.27 1.59-1.06 1.8s-1.59-.27-1.8-1.06.27-1.59 1.06-1.8 1.59.27 1.8 1.06ZM47.7 21.45c-.79.2-1.27 1.01-1.06 1.8s1.01 1.27 1.8 1.06 1.27-1.01 1.06-1.8-1.01-1.27-1.8-1.06ZM10.53 37.83a1.475 1.475 0 1 1-2.57 1.45 1.475 1.475 0 0 1 2.57-1.45Zm34.72-21.4A1.475 1.475 0 1 0 46.7 19a1.475 1.475 0 0 0-1.45-2.57Z"/><path d="M28.14 54.78C13.45 54.78 1.5 42.83 1.5 28.14S13.45 1.5 28.14 1.5s26.64 11.95 26.64 26.64-11.95 26.64-26.64 26.64Z" style="fill:#d39d48"/><path class="cls-1" d="M28.14 3C42 3 53.28 14.28 53.28 28.14S42 53.28 28.14 53.28 3 42 3 28.14 14.28 3 28.14 3m0-3C12.6 0 0 12.6 0 28.14s12.6 28.14 28.14 28.14 28.14-12.6 28.14-28.14S43.68 0 28.14 0Z"/><path class="cls-1" d="M20.76 17.95h-.06l-3.29 1.52-.66-2.76 4.45-2.08h3.43v17.49h-3.87V17.95ZM38.39 23.29c0 6.28-2.53 9.04-5.68 9.04-4.23 0-5.65-4.37-5.65-8.87 0-5.03 1.78-9.04 5.8-9.04 4.51 0 5.54 4.71 5.54 8.87Zm-7.41.08c-.05 4.09.51 5.94 1.84 5.94 1.2 0 1.64-1.93 1.64-5.94 0-3.75-.39-5.94-1.64-5.94s-1.85 1.89-1.83 5.94ZM20.55 39.35l-.51 1.67h-1.69l2.21-6.51h2.14l2.25 6.51h-1.76l-.56-1.67h-2.08Zm1.84-1.1-.45-1.38c-.12-.38-.25-.87-.36-1.25h-.02c-.11.38-.22.88-.33 1.26l-.43 1.38h1.6ZM25.27 41.02v-6.51h1.91l1.5 2.39c.43.68.86 1.5 1.18 2.23h.03c-.1-.86-.13-1.74-.13-2.72v-1.9h1.5v6.51h-1.71L28 38.51c-.43-.7-.91-1.54-1.26-2.3h-.04c.05.87.07 1.79.07 2.85v1.96h-1.5ZM32.08 39.5c.43.21 1.12.41 1.82.41.75 0 1.15-.28 1.15-.71 0-.4-.35-.64-1.21-.91-1.21-.39-2-.98-2-1.93 0-1.11 1.04-1.95 2.74-1.95.83 0 1.42.15 1.85.33l-.36 1.18c-.29-.12-.81-.31-1.51-.31s-1.05.3-1.05.63c0 .41.4.6 1.34.92 1.28.43 1.88 1.03 1.88 1.95 0 1.09-.93 2.02-2.92 2.02-.82 0-1.64-.2-2.04-.4l.33-1.22ZM38.37 31.19c-.2.3-.37.74-.37 1.32s.16 1.01.37 1.32h-.38c-.19-.25-.41-.69-.41-1.32 0-.63.22-1.07.41-1.32h.38ZM39.14 31.76l-.45.19-.09-.37.63-.26h.46v2.12h-.53v-1.68ZM40.21 33.82c.2-.3.37-.74.37-1.32s-.16-1.01-.37-1.32h.39c.19.25.41.68.41 1.32 0 .63-.22 1.06-.41 1.32h-.39ZM16.21 12.61c-.16.29-.5.79-.93 1.2-.6.57-1.15.84-1.7.86-.54.03-1.07-.2-1.47-.63-.92-.98-.66-2.28.41-3.3.42-.4.81-.64 1.04-.72l.35.68c-.25.1-.52.26-.88.6-.61.58-.79 1.34-.18 1.98.57.61 1.33.56 1.94-.02.17-.16.29-.3.32-.38l-.58-.62-.5.48-.49-.52 1.22-1.16 1.46 1.54ZM17.64 10.69l.23 1.06-.92.51-.78-4.2 1.16-.65 3.19 2.84-.95.54-.81-.74-1.13.63Zm.66-1.15-.66-.61c-.18-.17-.4-.4-.58-.57h-.01c.06.25.15.55.2.79l.19.88.87-.49ZM20.32 6.12c.3-.14.75-.3 1.27-.45.64-.18 1.11-.22 1.48-.09.31.11.53.34.63.7.14.49-.15.95-.49 1.17v.02c.34.02.58.23.79.56.26.4.53.87.66 1l-1 .28c-.1-.09-.29-.38-.55-.82-.26-.45-.48-.53-.88-.42l-.29.08.43 1.53-.97.27-1.08-3.83Zm1.44 1.4.38-.11c.48-.14.71-.44.62-.78-.1-.36-.42-.46-.87-.34-.23.07-.37.12-.43.15l.3 1.07ZM26.59 7.82l-.27 1.05-1.05.04 1.21-4.1 1.33-.05 1.56 3.98-1.09.05-.39-1.02-1.29.05Zm1.11-.73-.32-.85c-.09-.24-.18-.54-.26-.77h-.01c-.06.24-.11.55-.17.79l-.23.87.99-.04ZM30.27 8.84l.83-3.96 1.16.24.61 1.64c.18.47.33 1.02.43 1.51h.02c.05-.53.14-1.07.27-1.67l.24-1.15.91.19-.83 3.96-1.04-.22-.62-1.72c-.17-.48-.36-1.05-.47-1.56h-.02c-.08.53-.18 1.09-.32 1.74l-.25 1.19-.91-.19ZM37.19 7.43l-1.1-.51.33-.69 3.13 1.46-.33.69-1.12-.52-1.39 2.97-.92-.43 1.39-2.97ZM41.71 9.14l-2.29 3.33-.84-.58 2.29-3.33.84.58ZM43.55 13.83l-1.19-1.14-.67.69 1.33 1.28-.52.54-2.07-1.98 2.8-2.92 2 1.91-.52.54-1.26-1.21-.58.61 1.19 1.14-.51.54ZM40.05 43.37c.16-.29.5-.79.93-1.2.6-.57 1.15-.84 1.7-.86.54-.03 1.07.2 1.47.63.92.98.66 2.28-.41 3.3-.42.4-.81.64-1.04.72l-.35-.68c.25-.1.52-.26.88-.6.61-.58.79-1.34.18-1.98-.57-.61-1.33-.56-1.94.02-.17.16-.29.3-.32.38l.58.62.5-.48.49.52-1.22 1.16-1.46-1.54ZM38.62 45.28l-.23-1.06.92-.51.78 4.2-1.16.65-3.19-2.84.95-.54.81.74 1.13-.63Zm-.66 1.15.66.61c.18.17.4.4.58.57h.01c-.06-.25-.15-.55-.2-.79l-.19-.88-.87.49ZM35.94 49.85c-.3.14-.75.3-1.27.45-.64.18-1.11.22-1.48.09-.31-.11-.53-.34-.63-.7-.14-.49.15-.95.49-1.17v-.02c-.34-.02-.58-.23-.79-.56-.26-.4-.53-.87-.66-1l1-.28c.1.09.29.38.55.82.26.45.48.53.88.42l.29-.08-.43-1.53.97-.27 1.08 3.83Zm-1.44-1.4-.38.11c-.48.14-.71.44-.62.78.1.36.42.46.87.34.23-.07.37-.12.43-.15l-.3-1.07ZM29.68 48.15l.27-1.05 1.05-.04-1.21 4.1-1.33.05-1.56-3.98 1.09-.05.39 1.02 1.29-.05Zm-1.11.73.32.85c.09.24.18.54.26.77h.01c.06-.24.11-.55.17-.79l.23-.87-.99.04ZM26 47.13l-.83 3.96-1.16-.24-.61-1.64c-.18-.47-.33-1.02-.43-1.51h-.02c-.05.53-.14 1.07-.27 1.67l-.24 1.15-.91-.19.83-3.96 1.04.22.62 1.72c.17.48.36 1.05.47 1.56h.02c.08-.53.18-1.09.32-1.74l.25-1.19.91.19ZM19.08 48.54l1.1.51-.33.69-3.13-1.46.33-.69 1.12.52 1.39-2.97.92.43-1.39 2.97ZM14.55 46.83l2.29-3.33.84.58-2.29 3.33-.84-.58ZM12.72 42.14l1.19 1.14.67-.69-1.33-1.28.52-.54 2.07 1.98-2.8 2.92-2-1.91.52-.54 1.26 1.21.58-.61-1.19-1.14.51-.54ZM10.7 18.16c-.41.7-1.32.94-2.02.52s-.94-1.32-.52-2.02 1.32-.94 2.02-.52.94 1.32.52 2.02ZM46.55 37.6c-.7-.41-1.61-.18-2.02.52s-.18 1.61.52 2.02 1.61.18 2.02-.52.18-1.61-.52-2.02Z"/></svg>
