<svg id="Calque_1" xmlns="http://www.w3.org/2000/svg" viewBox="0 0 56.28 56.28"><defs><style>.cls-1{fill:none;stroke:#fff;stroke-linecap:round;stroke-linejoin:round}</style></defs><path d="M28.14 54.78C13.45 54.78 1.5 42.83 1.5 28.14S13.45 1.5 28.14 1.5s26.64 11.95 26.64 26.64-11.95 26.64-26.64 26.64Z" style="fill:#2f363d"/><path d="M28.14 3C42 3 53.28 14.28 53.28 28.14S42 53.28 28.14 53.28 3 42 3 28.14 14.28 3 28.14 3m0-3C12.6 0 0 12.6 0 28.14s12.6 28.14 28.14 28.14 28.14-12.6 28.14-28.14S43.68 0 28.14 0Z" style="fill:#fff"/><path class="cls-1" d="m16.03 12.43 28.64 28.06-28.59.05-.05-28.11z"/><path class="cls-1" d="m21.29 24.25 11.45 11.21-11.43.03-.02-11.24zM20.13 20.11l1.7-1.74M23.4 23.32l1.7-1.74M26.67 26.52l1.7-1.74M29.94 29.72l1.7-1.74M33.21 32.93l1.7-1.74M36.48 36.13l1.7-1.74M22.76 12.04c.21-.11 5.45 1.82 5.45 1.82l16.35 16.02c.29.29.3.76.01 1.05l-2.27 2.32c-.29.29-.76.3-1.05.01l-16.3-15.97-2.19-5.25ZM25.22 17.45l3.2-3.27M37.66 29.64l3.21-3.27M39.3 31.25l3.2-3.27M31.2 20.21l3 2.94M35.31 24.24l.37.36"/></svg>
