<svg xmlns="http://www.w3.org/2000/svg" viewBox="0 0 50 50" style="enable-background:new 0 0 50 50" xml:space="preserve"><style>.st0{fill-rule:evenodd;clip-rule:evenodd;fill:#fff}.st2{fill:none;stroke:#d51130;stroke-width:.8819;stroke-linecap:round;stroke-linejoin:round;stroke-miterlimit:10}.st5{fill-rule:evenodd;clip-rule:evenodd;fill:#d51130}</style><g id="Calque_2"><path class="st0" d="M.3 25C.3 11.3 11.3.3 25 .3S49.7 11.4 49.7 25c0 13.7-11.1 24.7-24.7 24.7C11.3 49.7.3 38.7.3 25"/><path class="st0" d="M.3 25C.3 11.3 11.3.3 25 .3S49.7 11.4 49.7 25c0 13.7-11.1 24.7-24.7 24.7C11.3 49.7.3 38.7.3 25"/><path d="M25 50C11.2 50 0 38.8 0 25S11.2 0 25 0s25 11.2 25 25-11.2 25-25 25M25 .5C11.5.5.6 11.5.6 25s11 24.5 24.5 24.5 24.4-11 24.4-24.5C49.4 11.5 38.5.5 25 .5" style="fill:#9d9d9c"/><path class="st2" d="m13.4 45.3 15.1-2.9V4.7L13.4 7.6z"/><path class="st2" d="m28.5 4.7-2.4-1.1-14.9 2.8V44l2.1 1.1"/><path d="M17.5 26.4c-.2.3-.6.4-.9.4-.7 0-1.3-.6-1.3-1.3 0-.7.6-1.3 1.3-1.3.3 0 .7.1.9.4" style="fill:none;stroke:#d51130;stroke-width:.6614;stroke-linecap:round;stroke-linejoin:round;stroke-miterlimit:10"/><path style="fill:none;stroke:#d51130;stroke-width:1.3229;stroke-linecap:round;stroke-linejoin:round;stroke-miterlimit:10" d="m16.7 25.4 1.7.5 2.5-.7"/><path class="st5" d="M38.5 6.8c1.2 2.8 2 6 4.9 7.2v5.1c-3.7-2-6.7-6.6-4.9-12.3z"/><path class="st5" d="M43.4 21.2c-1.8 1.2-5 0-6.2-1-2.7-2.2-3.1-5.8-4.3-9-.3-.7-1-1.6-1.7-2 0-.1.1-.2.2-.2 7.6.5 5.7 10.4 12 12.2z"/><path class="st5" d="M32.3 16.5c2.6 3.5 5.5 6.8 11 7.4v5.2c-6.2-1.7-11-4.8-11-12.6zM43.3 31.4c-.9 1.1-2.3 1.7-4.2 1.6-5.1-.1-5.8-5.7-10.4-6.5 1.7-2 5.3-1.2 7 .1 2.2 1.7 3.9 4.6 7.6 4.8z"/><path class="st5" d="M32.2 31.6c2.2 2.3 6.9 3.8 11 2.3V39c-6.6.4-10.2-2.2-11-7.4z"/></g></svg>
