<svg id="Calque_2" xmlns="http://www.w3.org/2000/svg" viewBox="0 0 56.28 56.28"><defs><style>.cls-1{fill:#fff}</style></defs><path d="M28.14 54.78C13.45 54.78 1.5 42.83 1.5 28.14S13.45 1.5 28.14 1.5s26.64 11.95 26.64 26.64-11.95 26.64-26.64 26.64Z" style="fill:#2f363d"/><path class="cls-1" d="M28.14 3C42 3 53.28 14.28 53.28 28.14S42 53.28 28.14 53.28 3 42 3 28.14 14.28 3 28.14 3m0-3C12.6 0 0 12.6 0 28.14s12.6 28.14 28.14 28.14 28.14-12.6 28.14-28.14S43.68 0 28.14 0Z"/><path class="cls-1" d="m29.76 24.48 14.32-9.3-.2-.32L28.33 25.2l1.43-.72zM42.34 14.77l-.49-.01-8.71 5.68 9.2-5.67z"/><path class="cls-1" d="m24.98 31.64 7.09-4.54.16-.75 12.15-7.79v-.11l-1.15.29-.39.54-3.25 2.08-1.69-.37-.59.38-.29 1.34-3.41 2.18-.62-.97 3-1.92.29-1.34 1.39-.89 1.69.37 2.75-1.76.8-1.21.12-.54 1.63-1.04.05-.55-.44-.69-2.64-.09-11.81 7.57h-1.28l-6.57 4.22c-1.58-.4-7.16-1.56-11.02.91-2.35 1.51-2.5 3.54.26 8.73s4.98 7.89 8.53 5.61c3.05-1.95 4.74-6.83 5.24-9.66ZM44.4 15.25l-.1.06-14.43 9.37-3.17 1.61-.12-.2 17.36-11.55.46.71Zm-2.88.59c.07.11.04.25-.07.32s-.25.04-.32-.07-.04-.25.07-.32.25-.04.32.07Zm-7.78 4.99c-.07-.11-.04-.25.07-.32s.25-.04.32.07.04.25-.07.32-.25.04-.32-.07Zm-1.53 1.25c-.11.07-.25.04-.32-.07s-.04-.25.07-.32.25-.04.32.07.04.25-.07.32Zm3.38-2.44c-.07-.11-.04-.25.07-.32s.25-.04.32.07.04.25-.07.32-.25.04-.32-.07Zm1.85-1.18c-.07-.11-.04-.25.07-.32s.25-.04.32.07.04.25-.07.32-.25.04-.32-.07Zm1.85-1.18c-.07-.11-.04-.25.07-.32s.25-.04.32.07.04.25-.07.32-.25.04-.32-.07Zm3.85-2.72L25.59 25.38l-.12-.19L41.8 14.54l1.35.02ZM15.86 39.25c-.44.25-1 .16-1.32-.21-.34-.4-.69-.88-1.07-1.46-.4-.63-.84-1.39-1.33-2.31-.68-1.29-1.15-2.34-1.41-3.2-.15-.51.08-1.04.55-1.27l.23-.11a1.063 1.063 0 0 1 1.43.5l.59 1.24c.07.14.26.22.41.15.61-.28 1.23-.05 1.48.47l.62 1.29c.24.5.05 1.11-.43 1.38a.31.31 0 0 0-.15.2c-.02.08 0 .17.04.24l.94 1.47a1.055 1.055 0 0 1-.37 1.5l-.22.13Zm6.82-6.55c-.26-3.23-2.99-6.05-6.3-6.04-2.15-.12-4.35.77-6.2 1.5 5.05-3.5 12.37-2.55 13.11 4.5.15 3.43-2.15 6.5-4.75 8.42 2.08-2.17 4.38-5.06 4.14-8.37Z"/><path class="cls-1" d="m44.61 16.16-1.17.75-.12.47-.91 1.36-2.95 1.89-1.69-.37-1.07.68-.3 1.34-2.77 1.78.12.2 2.86-1.83.29-1.35.91-.58 1.69.37 3.06-1.95.39-.59 1.49-.37.17-1.8z"/></svg>
