<svg id="Calque_2" xmlns="http://www.w3.org/2000/svg" viewBox="0 0 56.28 56.28"><defs><style>.cls-1{fill:#fff}</style></defs><path d="M28.14 54.78C13.45 54.78 1.5 42.83 1.5 28.14S13.45 1.5 28.14 1.5s26.64 11.95 26.64 26.64-11.95 26.64-26.64 26.64Z" style="fill:#2f363d"/><path class="cls-1" d="M28.14 3C42 3 53.28 14.28 53.28 28.14S42 53.28 28.14 53.28 3 42 3 28.14 14.28 3 28.14 3m0-3C12.6 0 0 12.6 0 28.14s12.6 28.14 28.14 28.14 28.14-12.6 28.14-28.14S43.68 0 28.14 0Z"/><path class="cls-1" d="m42.78 16.91.63.95 1.26-.85.6-.4-.63-.94-.33-.5-.6.41.33.49-1.26.84z"/><path class="cls-1" transform="rotate(-33.77 38.02 24.098)" d="M34.46 23.25h7.11v1.7h-7.11z"/><path class="cls-1" d="m26.74 30.48 3.29-2.2-.31-.46 1.33-.89-.36-.54 3.17-2.12.19.28h-.01l.4.61 9.91-6.62-.4-.6-.72.48-.19-.28-.64-.96-.19-.28 1.25-.84-.56-.84-6.38 4.27v-.03l-2.23-.14-.06.97-2.24 1.5.34.51-3.03 2.03-.37-.55-1.33.89-.31-.46-3.19 2.13c-1.99-.12-7.43-.08-12.36 3.22-2.96 1.98.27 5.96 1.24 7.42s5.36 7.09 8.23 5.17c2.5-1.67 5.18-7.8 5.52-11.65Zm-8.38 9.65-.5-.47a.503.503 0 0 1 .04-.77l2.71-2.08c.32-.24.77-.22 1.05.06l.45.44c.08.08.2.07.28 0l.19-.21c.84-.91.87-2.31.07-3.26l-.14-.16a2.178 2.178 0 0 0-2.75-.49l-3.24 1.83 3.03-2.03a2.45 2.45 0 0 1 3.22.45l.23.27c.95 1.13.95 2.78 0 3.91l-1.97 2.35c-.68.81-1.9.88-2.68.16Z"/></svg>
