<svg id="Calque_2" xmlns="http://www.w3.org/2000/svg" viewBox="0 0 56.28 56.28"><defs><style>.cls-1{fill:#fff}</style></defs><path d="M28.14 54.78C13.45 54.78 1.5 42.83 1.5 28.14S13.45 1.5 28.14 1.5s26.64 11.95 26.64 26.64-11.95 26.64-26.64 26.64Z" style="fill:#2f363d"/><path class="cls-1" d="M28.14 3C42 3 53.28 14.28 53.28 28.14S42 53.28 28.14 53.28 3 42 3 28.14 14.28 3 28.14 3m0-3C12.6 0 0 12.6 0 28.14s12.6 28.14 28.14 28.14 28.14-12.6 28.14-28.14S43.68 0 28.14 0Z"/><path class="cls-1" transform="rotate(-36.14 38.143 15.616)" d="M35.05 15.34h6.18v.54h-6.18z"/><path class="cls-1" d="m44.87 20.09-5 3.65.32.44.01-.01.6.81 2.21-1.61-.59-.82 2.77-2.02-.32-.44z"/><path class="cls-1" d="m44.46 16.99-.47.34.15.2-3.93 2.87-.15-.2-1.04.76-.32-.44 1.04-.76-.3-.41 3.93-2.87.3.41.46-.34-.72-.95L38 19.55l-.32-.44 5.4-3.94-1.11-1.46-5.48 4.24c-.2.15-.12.46-.05.53.13.21.09.4-.1.59l-12.01 8.78c-2.95-2.22-7.11-2.37-10.25-.08l-4.32 3.15c-.59.43-.72 1.26-.29 1.85l3.86 5.29c2.5 3.42 7.3 4.17 10.72 1.67l5.5-4.02c.35-.25.43-.74.17-1.09l-2.5-3.43 11.56-8.44s.23-.14.35.01c.06.08.15.18.24.3.18.23.45.07.45.07l5.93-4.47-1.3-1.7ZM17.52 38.44c-.54.4-1.3.28-1.7-.26l-1.97-2.7a1.216 1.216 0 1 1 1.96-1.44l1.97 2.7c.4.54.28 1.3-.26 1.7ZM42.1 14.45l.32.44-4.5 3.28-.32-.44 4.5-3.28Zm-1.08 6.25 3.51-2.56.32.44-3.51 2.56-.32-.44Z"/></svg>
