<svg id="Calque_1" xmlns="http://www.w3.org/2000/svg" viewBox="0 0 56.28 56.28"><defs><style>.cls-1{fill:#fff}</style></defs><path d="M28.14 54.78C13.45 54.78 1.5 42.83 1.5 28.14S13.45 1.5 28.14 1.5s26.64 11.95 26.64 26.64-11.95 26.64-26.64 26.64Z" style="fill:#2f363d"/><path class="cls-1" d="M28.14 3C42 3 53.28 14.28 53.28 28.14S42 53.28 28.14 53.28 3 42 3 28.14 14.28 3 28.14 3m0-3C12.6 0 0 12.6 0 28.14s12.6 28.14 28.14 28.14 28.14-12.6 28.14-28.14S43.68 0 28.14 0Z"/><path class="cls-1" d="M21.29 40.9h-1.93v3.58h-1.23l-4.92-3.05v-2.31h4.74v-.96h1.41v.96h1.93v1.79Zm-3.35 0h-1.79c-.48 0-.99-.03-1.51-.05v.04c.53.26.99.48 1.5.75l1.77 1.08h.02V40.9ZM18.18 28.59c2.22 0 3.24 1.58 3.24 3.21 0 1.77-1.17 3.14-3.14 3.14s-3.22-1.3-3.22-3.25 1.28-3.1 3.12-3.1Zm.06 4.4c1.04 0 1.83-.44 1.83-1.25 0-.74-.74-1.21-1.84-1.21-.9 0-1.82.35-1.82 1.2 0 .9.93 1.25 1.83 1.25ZM19.34 21.69c.79 0 1.45-.02 1.95-.05v1.64l-.86.09v.04c.38.24 1 .81 1 1.9 0 1.24-.77 2.14-2.65 2.14H15.2v-1.89h3.27c.89 0 1.42-.29 1.42-.95 0-.51-.36-.82-.67-.94a.986.986 0 0 0-.4-.07h-3.63v-1.9h4.14ZM14.76 12.49v3.14l1.24.17c-.02-.18-.03-.33-.03-.52 0-.77.18-1.56.58-2.13.42-.61 1.09-.98 2.03-.98 1.51 0 2.83 1.29 2.83 3.47 0 .98-.23 1.8-.46 2.25l-1.42-.34c.18-.36.4-1.09.4-1.82 0-.79-.38-1.62-1.24-1.62-.83 0-1.34.66-1.34 2.28 0 .44.03.76.08 1.09l-4.24-.52v-4.45h1.56ZM38.65 41.67v1.4h2.37v1.37h-6.58v-2.87c0-.66.17-1.19.51-1.58.34-.39.87-.59 1.58-.59.78 0 1.33.2 1.65.59.32.39.48.95.48 1.68Zm-1.37-.64c-.16-.18-.41-.27-.75-.27s-.59.09-.73.27c-.15.18-.22.43-.22.76v1.28h1.94v-1.28c0-.32-.08-.58-.24-.76ZM41.2 35.45c0 .94-.26 1.66-.77 2.16-.63.67-1.53 1-2.72 1s-2.11-.33-2.71-1c-.51-.5-.77-1.22-.77-2.16s.26-1.66.77-2.16c.6-.66 1.51-1 2.71-1s2.09.33 2.72 1c.51.5.77 1.22.77 2.16Zm-1.77-1.3c-.4-.32-.97-.48-1.72-.48s-1.31.16-1.71.48c-.4.32-.6.75-.6 1.3s.2.98.6 1.3.97.49 1.71.49 1.31-.16 1.72-.49c.4-.32.6-.76.6-1.3s-.2-.98-.6-1.3ZM34.43 31.36v-1.37h6.58v1.37h-6.58ZM41.01 23.39v1.38l-4.68 2.69h4.68v1.28h-6.58V27.3l4.6-2.62h-4.6V23.4h6.58ZM34.43 17.32h1.17v1.97h5.42v1.38H35.6v1.98h-1.17v-5.33ZM40.06 14.13c0-.33-.04-.59-.11-.79-.14-.38-.39-.58-.76-.58-.22 0-.39.1-.5.29-.12.19-.22.49-.31.9l-.16.7c-.16.68-.32 1.16-.5 1.42-.3.44-.78.67-1.42.67-.59 0-1.08-.21-1.47-.64-.39-.43-.58-1.06-.58-1.89 0-.69.18-1.29.55-1.78.37-.49.9-.75 1.6-.77v1.32c-.4.02-.68.2-.84.52-.11.21-.17.48-.17.8 0 .35.07.64.21.85.14.21.34.32.6.32.24 0 .41-.1.53-.31.08-.13.17-.42.27-.86l.27-1.13c.12-.5.28-.87.48-1.13.31-.39.76-.59 1.34-.59s1.1.23 1.5.69c.4.46.6 1.11.6 1.95s-.2 1.53-.59 2.02c-.39.49-.93.74-1.62.74v-1.31c.3-.04.53-.12.67-.25.27-.22.41-.61.41-1.15ZM27.8 47.41c.86 0 1.55.69 1.55 1.55s-.69 1.55-1.55 1.55-1.55-.69-1.55-1.55.69-1.55 1.55-1.55Zm-1.55-3.66c0 .86.69 1.55 1.55 1.55s1.55-.69 1.55-1.55-.69-1.55-1.55-1.55-1.55.69-1.55 1.55Zm0-5.21c0 .86.69 1.55 1.55 1.55s1.55-.69 1.55-1.55-.69-1.55-1.55-1.55-1.55.69-1.55 1.55Zm0-5.21c0 .86.69 1.55 1.55 1.55s1.55-.69 1.55-1.55-.69-1.55-1.55-1.55-1.55.69-1.55 1.55Zm0-5.21c0 .86.69 1.55 1.55 1.55s1.55-.69 1.55-1.55-.69-1.55-1.55-1.55-1.55.69-1.55 1.55Zm0-5.21c0 .86.69 1.55 1.55 1.55s1.55-.69 1.55-1.55-.69-1.55-1.55-1.55-1.55.69-1.55 1.55Zm0-5.21c0 .86.69 1.55 1.55 1.55s1.55-.69 1.55-1.55-.69-1.55-1.55-1.55-1.55.69-1.55 1.55Zm0-5.21c0 .86.69 1.55 1.55 1.55s1.55-.69 1.55-1.55-.69-1.55-1.55-1.55-1.55.69-1.55 1.55Zm0-5.21c0 .86.69 1.55 1.55 1.55s1.55-.69 1.55-1.55-.69-1.55-1.55-1.55-1.55.69-1.55 1.55Z"/></svg>
